<?xml version="1.0" encoding="UTF-8"?>
<!DOCTYPE svg PUBLIC "-//W3C//DTD SVG 1.1//EN" "http://www.w3.org/Graphics/SVG/1.1/DTD/svg11.dtd">
<svg version="1.1" xmlns="http://www.w3.org/2000/svg" xmlns:xlink="http://www.w3.org/1999/xlink" x="0" y="0" width="500" height="500" viewBox="0, 0, 500, 500">
  <g id="Layer1">
    <path d="M250,300 C222.386,300 200,277.614 200,250 C200,222.386 222.386,200 250,200 C277.614,200 300,222.386 300,250 C300,277.614 277.614,300 250,300 z" fill="#EE0000"/>
    <path d="M250,200 C222.386,200 200,177.614 200,150 C200,122.386 222.386,100 250,100 C277.614,100 300,122.386 300,150 C300,177.614 277.614,200 250,200 z" fill="#FF8080"/>
    <path d="M350,300 C322.386,300 300,277.614 300,250 C300,222.386 322.386,200 350,200 C377.614,200 400,222.386 400,250 C400,277.614 377.614,300 350,300 z" fill="#FF8080"/>
    <path d="M150,300 C122.386,300 100,277.614 100,250 C100,222.386 122.386,200 150,200 C177.614,200 200,222.386 200,250 C200,277.614 177.614,300 150,300 z" fill="#FF8080"/>
    <path d="M250,400 C222.386,400 200,377.614 200,350 C200,322.386 222.386,300 250,300 C277.614,300 300,322.386 300,350 C300,377.614 277.614,400 250,400 z" fill="#FF8080"/>
  </g>
</svg>
