<?xml version="1.0" encoding="UTF-8"?>
<!DOCTYPE svg PUBLIC "-//W3C//DTD SVG 1.1//EN" "http://www.w3.org/Graphics/SVG/1.1/DTD/svg11.dtd">
<svg version="1.1" xmlns="http://www.w3.org/2000/svg" xmlns:xlink="http://www.w3.org/1999/xlink" x="0" y="0" width="880" height="640" viewBox="0, 0, 880, 640">
  <g id="Layer1">
    <g>
      <path d="M90.5,520.5 C62.886,520.5 40.5,498.114 40.5,470.5 C40.5,442.886 62.886,420.5 90.5,420.5 C118.114,420.5 140.5,442.886 140.5,470.5 C140.5,498.114 118.114,520.5 90.5,520.5 z" fill="#E0F2FF"/>
      <path d="M90.5,520.5 C62.886,520.5 40.5,498.114 40.5,470.5 C40.5,442.886 62.886,420.5 90.5,420.5 C118.114,420.5 140.5,442.886 140.5,470.5 C140.5,498.114 118.114,520.5 90.5,520.5 z" fill-opacity="0" stroke="#2BA4FF" stroke-width="3"/>
    </g>
    <g>
      <path d="M90.5,420.5 C62.886,420.5 40.5,398.114 40.5,370.5 C40.5,342.886 62.886,320.5 90.5,320.5 C118.114,320.5 140.5,342.886 140.5,370.5 C140.5,398.114 118.114,420.5 90.5,420.5 z" fill="#E0F2FF"/>
      <path d="M90.5,420.5 C62.886,420.5 40.5,398.114 40.5,370.5 C40.5,342.886 62.886,320.5 90.5,320.5 C118.114,320.5 140.5,342.886 140.5,370.5 C140.5,398.114 118.114,420.5 90.5,420.5 z" fill-opacity="0" stroke="#2BA4FF" stroke-width="3"/>
    </g>
    <g>
      <path d="M90.5,620.5 C62.886,620.5 40.5,598.114 40.5,570.5 C40.5,542.886 62.886,520.5 90.5,520.5 C118.114,520.5 140.5,542.886 140.5,570.5 C140.5,598.114 118.114,620.5 90.5,620.5 z" fill="#E0F2FF"/>
      <path d="M90.5,620.5 C62.886,620.5 40.5,598.114 40.5,570.5 C40.5,542.886 62.886,520.5 90.5,520.5 C118.114,520.5 140.5,542.886 140.5,570.5 C140.5,598.114 118.114,620.5 90.5,620.5 z" fill-opacity="0" stroke="#2BA4FF" stroke-width="3"/>
    </g>
    <g>
      <path d="M90.5,320.5 C62.886,320.5 40.5,298.114 40.5,270.5 C40.5,242.886 62.886,220.5 90.5,220.5 C118.114,220.5 140.5,242.886 140.5,270.5 C140.5,298.114 118.114,320.5 90.5,320.5 z" fill="#E0F2FF"/>
      <path d="M90.5,320.5 C62.886,320.5 40.5,298.114 40.5,270.5 C40.5,242.886 62.886,220.5 90.5,220.5 C118.114,220.5 140.5,242.886 140.5,270.5 C140.5,298.114 118.114,320.5 90.5,320.5 z" fill-opacity="0" stroke="#2BA4FF" stroke-width="3"/>
    </g>
    <path d="M190,520 C162.386,520 140,497.614 140,470 C140,442.386 162.386,420 190,420 C217.614,420 240,442.386 240,470 C240,497.614 217.614,520 190,520 z" fill="#FF8080"/>
    <path d="M190,420 C162.386,420 140,397.614 140,370 C140,342.386 162.386,320 190,320 C217.614,320 240,342.386 240,370 C240,397.614 217.614,420 190,420 z" fill="#FF8080"/>
    <g>
      <path d="M190.5,620.5 C162.886,620.5 140.5,598.114 140.5,570.5 C140.5,542.886 162.886,520.5 190.5,520.5 C218.114,520.5 240.5,542.886 240.5,570.5 C240.5,598.114 218.114,620.5 190.5,620.5 z" fill="#E0F2FF"/>
      <path d="M190.5,620.5 C162.886,620.5 140.5,598.114 140.5,570.5 C140.5,542.886 162.886,520.5 190.5,520.5 C218.114,520.5 240.5,542.886 240.5,570.5 C240.5,598.114 218.114,620.5 190.5,620.5 z" fill-opacity="0" stroke="#2BA4FF" stroke-width="3"/>
    </g>
    <g>
      <path d="M190.5,320.5 C162.886,320.5 140.5,298.114 140.5,270.5 C140.5,242.886 162.886,220.5 190.5,220.5 C218.114,220.5 240.5,242.886 240.5,270.5 C240.5,298.114 218.114,320.5 190.5,320.5 z" fill="#E0F2FF"/>
      <path d="M190.5,320.5 C162.886,320.5 140.5,298.114 140.5,270.5 C140.5,242.886 162.886,220.5 190.5,220.5 C218.114,220.5 240.5,242.886 240.5,270.5 C240.5,298.114 218.114,320.5 190.5,320.5 z" fill-opacity="0" stroke="#2BA4FF" stroke-width="3"/>
    </g>
    <path d="M290,520 C262.386,520 240,497.614 240,470 C240,442.386 262.386,420 290,420 C317.614,420 340,442.386 340,470 C340,497.614 317.614,520 290,520 z" fill="#FF8080"/>
    <path d="M290,420 C262.386,420 240,397.614 240,370 C240,342.386 262.386,320 290,320 C317.614,320 340,342.386 340,370 C340,397.614 317.614,420 290,420 z" fill="#FF8080"/>
    <g>
      <path d="M290.5,620.5 C262.886,620.5 240.5,598.114 240.5,570.5 C240.5,542.886 262.886,520.5 290.5,520.5 C318.114,520.5 340.5,542.886 340.5,570.5 C340.5,598.114 318.114,620.5 290.5,620.5 z" fill="#E0F2FF"/>
      <path d="M290.5,620.5 C262.886,620.5 240.5,598.114 240.5,570.5 C240.5,542.886 262.886,520.5 290.5,520.5 C318.114,520.5 340.5,542.886 340.5,570.5 C340.5,598.114 318.114,620.5 290.5,620.5 z" fill-opacity="0" stroke="#2BA4FF" stroke-width="3"/>
    </g>
    <g>
      <path d="M290.5,320.5 C262.886,320.5 240.5,298.114 240.5,270.5 C240.5,242.886 262.886,220.5 290.5,220.5 C318.114,220.5 340.5,242.886 340.5,270.5 C340.5,298.114 318.114,320.5 290.5,320.5 z" fill="#E0F2FF"/>
      <path d="M290.5,320.5 C262.886,320.5 240.5,298.114 240.5,270.5 C240.5,242.886 262.886,220.5 290.5,220.5 C318.114,220.5 340.5,242.886 340.5,270.5 C340.5,298.114 318.114,320.5 290.5,320.5 z" fill-opacity="0" stroke="#2BA4FF" stroke-width="3"/>
    </g>
    <path d="M390,520 C362.386,520 340,497.614 340,470 C340,442.386 362.386,420 390,420 C417.614,420 440,442.386 440,470 C440,497.614 417.614,520 390,520 z" fill="#FF8080"/>
    <path d="M390,420 C362.386,420 340,397.614 340,370 C340,342.386 362.386,320 390,320 C417.614,320 440,342.386 440,370 C440,397.614 417.614,420 390,420 z" fill="#FF8080"/>
    <g>
      <path d="M390.5,620.5 C362.886,620.5 340.5,598.114 340.5,570.5 C340.5,542.886 362.886,520.5 390.5,520.5 C418.114,520.5 440.5,542.886 440.5,570.5 C440.5,598.114 418.114,620.5 390.5,620.5 z" fill="#E0F2FF"/>
      <path d="M390.5,620.5 C362.886,620.5 340.5,598.114 340.5,570.5 C340.5,542.886 362.886,520.5 390.5,520.5 C418.114,520.5 440.5,542.886 440.5,570.5 C440.5,598.114 418.114,620.5 390.5,620.5 z" fill-opacity="0" stroke="#2BA4FF" stroke-width="3"/>
    </g>
    <g>
      <path d="M390.5,320.5 C362.886,320.5 340.5,298.114 340.5,270.5 C340.5,242.886 362.886,220.5 390.5,220.5 C418.114,220.5 440.5,242.886 440.5,270.5 C440.5,298.114 418.114,320.5 390.5,320.5 z" fill="#E0F2FF"/>
      <path d="M390.5,320.5 C362.886,320.5 340.5,298.114 340.5,270.5 C340.5,242.886 362.886,220.5 390.5,220.5 C418.114,220.5 440.5,242.886 440.5,270.5 C440.5,298.114 418.114,320.5 390.5,320.5 z" fill-opacity="0" stroke="#2BA4FF" stroke-width="3"/>
    </g>
    <g>
      <path d="M490.5,320.5 C462.886,320.5 440.5,298.114 440.5,270.5 C440.5,242.886 462.886,220.5 490.5,220.5 C518.114,220.5 540.5,242.886 540.5,270.5 C540.5,298.114 518.114,320.5 490.5,320.5 z" fill="#AAFFB6"/>
      <path d="M490.5,320.5 C462.886,320.5 440.5,298.114 440.5,270.5 C440.5,242.886 462.886,220.5 490.5,220.5 C518.114,220.5 540.5,242.886 540.5,270.5 C540.5,298.114 518.114,320.5 490.5,320.5 z" fill-opacity="0" stroke="#38C400" stroke-width="3"/>
    </g>
    <g>
      <path d="M490.5,220.5 C462.886,220.5 440.5,198.114 440.5,170.5 C440.5,142.886 462.886,120.5 490.5,120.5 C518.114,120.5 540.5,142.886 540.5,170.5 C540.5,198.114 518.114,220.5 490.5,220.5 z" fill="#FFFFFF"/>
      <path d="M490.5,220.5 C462.886,220.5 440.5,198.114 440.5,170.5 C440.5,142.886 462.886,120.5 490.5,120.5 C518.114,120.5 540.5,142.886 540.5,170.5 C540.5,198.114 518.114,220.5 490.5,220.5 z" fill-opacity="0" stroke="#FF8080" stroke-width="3"/>
    </g>
    <g>
      <path d="M490.5,420.5 C462.886,420.5 440.5,398.114 440.5,370.5 C440.5,342.886 462.886,320.5 490.5,320.5 C518.114,320.5 540.5,342.886 540.5,370.5 C540.5,398.114 518.114,420.5 490.5,420.5 z" fill="#E0F2FF"/>
      <path d="M490.5,420.5 C462.886,420.5 440.5,398.114 440.5,370.5 C440.5,342.886 462.886,320.5 490.5,320.5 C518.114,320.5 540.5,342.886 540.5,370.5 C540.5,398.114 518.114,420.5 490.5,420.5 z" fill-opacity="0" stroke="#2BA4FF" stroke-width="3"/>
    </g>
    <g>
      <path d="M490.5,120.5 C462.886,120.5 440.5,98.114 440.5,70.5 C440.5,42.886 462.886,20.5 490.5,20.5 C518.114,20.5 540.5,42.886 540.5,70.5 C540.5,98.114 518.114,120.5 490.5,120.5 z" fill="#E0F2FF"/>
      <path d="M490.5,120.5 C462.886,120.5 440.5,98.114 440.5,70.5 C440.5,42.886 462.886,20.5 490.5,20.5 C518.114,20.5 540.5,42.886 540.5,70.5 C540.5,98.114 518.114,120.5 490.5,120.5 z" fill-opacity="0" stroke="#2BA4FF" stroke-width="3"/>
    </g>
    <g>
      <path d="M390.5,220.5 C362.886,220.5 340.5,198.114 340.5,170.5 C340.5,142.886 362.886,120.5 390.5,120.5 C418.114,120.5 440.5,142.886 440.5,170.5 C440.5,198.114 418.114,220.5 390.5,220.5 z" fill="#E0F2FF"/>
      <path d="M390.5,220.5 C362.886,220.5 340.5,198.114 340.5,170.5 C340.5,142.886 362.886,120.5 390.5,120.5 C418.114,120.5 440.5,142.886 440.5,170.5 C440.5,198.114 418.114,220.5 390.5,220.5 z" fill-opacity="0" stroke="#2BA4FF" stroke-width="3"/>
    </g>
    <g>
      <path d="M590.5,320.5 C562.886,320.5 540.5,298.114 540.5,270.5 C540.5,242.886 562.886,220.5 590.5,220.5 C618.114,220.5 640.5,242.886 640.5,270.5 C640.5,298.114 618.114,320.5 590.5,320.5 z" fill="#FFFFFF"/>
      <path d="M590.5,320.5 C562.886,320.5 540.5,298.114 540.5,270.5 C540.5,242.886 562.886,220.5 590.5,220.5 C618.114,220.5 640.5,242.886 640.5,270.5 C640.5,298.114 618.114,320.5 590.5,320.5 z" fill-opacity="0" stroke="#FF8080" stroke-width="3"/>
    </g>
    <g>
      <path d="M590.5,220.5 C562.886,220.5 540.5,198.114 540.5,170.5 C540.5,142.886 562.886,120.5 590.5,120.5 C618.114,120.5 640.5,142.886 640.5,170.5 C640.5,198.114 618.114,220.5 590.5,220.5 z" fill="#FFFFFF"/>
      <path d="M590.5,220.5 C562.886,220.5 540.5,198.114 540.5,170.5 C540.5,142.886 562.886,120.5 590.5,120.5 C618.114,120.5 640.5,142.886 640.5,170.5 C640.5,198.114 618.114,220.5 590.5,220.5 z" fill-opacity="0" stroke="#FF8080" stroke-width="3"/>
    </g>
    <g>
      <path d="M590.5,420.5 C562.886,420.5 540.5,398.114 540.5,370.5 C540.5,342.886 562.886,320.5 590.5,320.5 C618.114,320.5 640.5,342.886 640.5,370.5 C640.5,398.114 618.114,420.5 590.5,420.5 z" fill="#E0F2FF"/>
      <path d="M590.5,420.5 C562.886,420.5 540.5,398.114 540.5,370.5 C540.5,342.886 562.886,320.5 590.5,320.5 C618.114,320.5 640.5,342.886 640.5,370.5 C640.5,398.114 618.114,420.5 590.5,420.5 z" fill-opacity="0" stroke="#2BA4FF" stroke-width="3"/>
    </g>
    <g>
      <path d="M590.5,120.5 C562.886,120.5 540.5,98.114 540.5,70.5 C540.5,42.886 562.886,20.5 590.5,20.5 C618.114,20.5 640.5,42.886 640.5,70.5 C640.5,98.114 618.114,120.5 590.5,120.5 z" fill="#E0F2FF"/>
      <path d="M590.5,120.5 C562.886,120.5 540.5,98.114 540.5,70.5 C540.5,42.886 562.886,20.5 590.5,20.5 C618.114,20.5 640.5,42.886 640.5,70.5 C640.5,98.114 618.114,120.5 590.5,120.5 z" fill-opacity="0" stroke="#2BA4FF" stroke-width="3"/>
    </g>
    <g>
      <path d="M690.5,320.5 C662.886,320.5 640.5,298.114 640.5,270.5 C640.5,242.886 662.886,220.5 690.5,220.5 C718.114,220.5 740.5,242.886 740.5,270.5 C740.5,298.114 718.114,320.5 690.5,320.5 z" fill="#FFFFFF"/>
      <path d="M690.5,320.5 C662.886,320.5 640.5,298.114 640.5,270.5 C640.5,242.886 662.886,220.5 690.5,220.5 C718.114,220.5 740.5,242.886 740.5,270.5 C740.5,298.114 718.114,320.5 690.5,320.5 z" fill-opacity="0" stroke="#FF8080" stroke-width="3"/>
    </g>
    <g>
      <path d="M690.5,220.5 C662.886,220.5 640.5,198.114 640.5,170.5 C640.5,142.886 662.886,120.5 690.5,120.5 C718.114,120.5 740.5,142.886 740.5,170.5 C740.5,198.114 718.114,220.5 690.5,220.5 z" fill="#FFFFFF"/>
      <path d="M690.5,220.5 C662.886,220.5 640.5,198.114 640.5,170.5 C640.5,142.886 662.886,120.5 690.5,120.5 C718.114,120.5 740.5,142.886 740.5,170.5 C740.5,198.114 718.114,220.5 690.5,220.5 z" fill-opacity="0" stroke="#FF8080" stroke-width="3"/>
    </g>
    <g>
      <path d="M690.5,420.5 C662.886,420.5 640.5,398.114 640.5,370.5 C640.5,342.886 662.886,320.5 690.5,320.5 C718.114,320.5 740.5,342.886 740.5,370.5 C740.5,398.114 718.114,420.5 690.5,420.5 z" fill="#E0F2FF"/>
      <path d="M690.5,420.5 C662.886,420.5 640.5,398.114 640.5,370.5 C640.5,342.886 662.886,320.5 690.5,320.5 C718.114,320.5 740.5,342.886 740.5,370.5 C740.5,398.114 718.114,420.5 690.5,420.5 z" fill-opacity="0" stroke="#2BA4FF" stroke-width="3"/>
    </g>
    <g>
      <path d="M690.5,120.5 C662.886,120.5 640.5,98.114 640.5,70.5 C640.5,42.886 662.886,20.5 690.5,20.5 C718.114,20.5 740.5,42.886 740.5,70.5 C740.5,98.114 718.114,120.5 690.5,120.5 z" fill="#E0F2FF"/>
      <path d="M690.5,120.5 C662.886,120.5 640.5,98.114 640.5,70.5 C640.5,42.886 662.886,20.5 690.5,20.5 C718.114,20.5 740.5,42.886 740.5,70.5 C740.5,98.114 718.114,120.5 690.5,120.5 z" fill-opacity="0" stroke="#2BA4FF" stroke-width="3"/>
    </g>
    <g>
      <path d="M790.5,320.5 C762.886,320.5 740.5,298.114 740.5,270.5 C740.5,242.886 762.886,220.5 790.5,220.5 C818.114,220.5 840.5,242.886 840.5,270.5 C840.5,298.114 818.114,320.5 790.5,320.5 z" fill="#E0F2FF"/>
      <path d="M790.5,320.5 C762.886,320.5 740.5,298.114 740.5,270.5 C740.5,242.886 762.886,220.5 790.5,220.5 C818.114,220.5 840.5,242.886 840.5,270.5 C840.5,298.114 818.114,320.5 790.5,320.5 z" fill-opacity="0" stroke="#2BA4FF" stroke-width="3"/>
    </g>
    <g>
      <path d="M790.5,220.5 C762.886,220.5 740.5,198.114 740.5,170.5 C740.5,142.886 762.886,120.5 790.5,120.5 C818.114,120.5 840.5,142.886 840.5,170.5 C840.5,198.114 818.114,220.5 790.5,220.5 z" fill="#E0F2FF"/>
      <path d="M790.5,220.5 C762.886,220.5 740.5,198.114 740.5,170.5 C740.5,142.886 762.886,120.5 790.5,120.5 C818.114,120.5 840.5,142.886 840.5,170.5 C840.5,198.114 818.114,220.5 790.5,220.5 z" fill-opacity="0" stroke="#2BA4FF" stroke-width="3"/>
    </g>
    <g>
      <path d="M790.5,420.5 C762.886,420.5 740.5,398.114 740.5,370.5 C740.5,342.886 762.886,320.5 790.5,320.5 C818.114,320.5 840.5,342.886 840.5,370.5 C840.5,398.114 818.114,420.5 790.5,420.5 z" fill="#E0F2FF"/>
      <path d="M790.5,420.5 C762.886,420.5 740.5,398.114 740.5,370.5 C740.5,342.886 762.886,320.5 790.5,320.5 C818.114,320.5 840.5,342.886 840.5,370.5 C840.5,398.114 818.114,420.5 790.5,420.5 z" fill-opacity="0" stroke="#2BA4FF" stroke-width="3"/>
    </g>
    <g>
      <path d="M790.5,120.5 C762.886,120.5 740.5,98.114 740.5,70.5 C740.5,42.886 762.886,20.5 790.5,20.5 C818.114,20.5 840.5,42.886 840.5,70.5 C840.5,98.114 818.114,120.5 790.5,120.5 z" fill="#E0F2FF"/>
      <path d="M790.5,120.5 C762.886,120.5 740.5,98.114 740.5,70.5 C740.5,42.886 762.886,20.5 790.5,20.5 C818.114,20.5 840.5,42.886 840.5,70.5 C840.5,98.114 818.114,120.5 790.5,120.5 z" fill-opacity="0" stroke="#2BA4FF" stroke-width="3"/>
    </g>
    <g>
      <path d="M490.5,520.5 C462.886,520.5 440.5,498.114 440.5,470.5 C440.5,442.886 462.886,420.5 490.5,420.5 C518.114,420.5 540.5,442.886 540.5,470.5 C540.5,498.114 518.114,520.5 490.5,520.5 z" fill="#E0F2FF"/>
      <path d="M490.5,520.5 C462.886,520.5 440.5,498.114 440.5,470.5 C440.5,442.886 462.886,420.5 490.5,420.5 C518.114,420.5 540.5,442.886 540.5,470.5 C540.5,498.114 518.114,520.5 490.5,520.5 z" fill-opacity="0" stroke="#2BA4FF" stroke-width="3"/>
    </g>
    <g>
      <path d="M490.5,620.5 C462.886,620.5 440.5,598.114 440.5,570.5 C440.5,542.886 462.886,520.5 490.5,520.5 C518.114,520.5 540.5,542.886 540.5,570.5 C540.5,598.114 518.114,620.5 490.5,620.5 z" fill="#E0F2FF"/>
      <path d="M490.5,620.5 C462.886,620.5 440.5,598.114 440.5,570.5 C440.5,542.886 462.886,520.5 490.5,520.5 C518.114,520.5 540.5,542.886 540.5,570.5 C540.5,598.114 518.114,620.5 490.5,620.5 z" fill-opacity="0" stroke="#2BA4FF" stroke-width="3"/>
    </g>
    <g>
      <path d="M390.5,120.5 C362.886,120.5 340.5,98.114 340.5,70.5 C340.5,42.886 362.886,20.5 390.5,20.5 C418.114,20.5 440.5,42.886 440.5,70.5 C440.5,98.114 418.114,120.5 390.5,120.5 z" fill="#E0F2FF"/>
      <path d="M390.5,120.5 C362.886,120.5 340.5,98.114 340.5,70.5 C340.5,42.886 362.886,20.5 390.5,20.5 C418.114,20.5 440.5,42.886 440.5,70.5 C440.5,98.114 418.114,120.5 390.5,120.5 z" fill-opacity="0" stroke="#2BA4FF" stroke-width="3"/>
    </g>
  </g>
</svg>
