<?xml version="1.0" encoding="UTF-8"?>
<!DOCTYPE svg PUBLIC "-//W3C//DTD SVG 1.1//EN" "http://www.w3.org/Graphics/SVG/1.1/DTD/svg11.dtd">
<svg version="1.1" xmlns="http://www.w3.org/2000/svg" xmlns:xlink="http://www.w3.org/1999/xlink" x="0" y="0" width="400" height="400" viewBox="0, 0, 400, 400">
  <g id="grid">
    <path d="M100.5,60.5 L100.5,340.5" fill-opacity="0" stroke="#959595" stroke-width="3"/>
    <path d="M200.5,60.5 L200.5,340.5" fill-opacity="0" stroke="#959595" stroke-width="3"/>
    <path d="M300.5,60.5 L300.5,340.5" fill-opacity="0" stroke="#959595" stroke-width="3"/>
    <path d="M60.5,100.5 L340.5,100.5" fill-opacity="0" stroke="#959595" stroke-width="3"/>
    <path d="M60.5,200.5 L340.5,200.5" fill-opacity="0" stroke="#959595" stroke-width="3"/>
    <path d="M60.5,300.5 L340.5,300.5" fill-opacity="0" stroke="#959595" stroke-width="3"/>
    <path d="M100,110 C94.477,110 90,105.523 90,100 C90,94.477 94.477,90 100,90 C105.523,90 110,94.477 110,100 C110,105.523 105.523,110 100,110 z" fill="#2BA4FF"/>
    <path d="M200,110 C194.477,110 190,105.523 190,100 C190,94.477 194.477,90 200,90 C205.523,90 210,94.477 210,100 C210,105.523 205.523,110 200,110 z" fill="#2BA4FF"/>
    <path d="M300,110 C294.477,110 290,105.523 290,100 C290,94.477 294.477,90 300,90 C305.523,90 310,94.477 310,100 C310,105.523 305.523,110 300,110 z" fill="#2BA4FF"/>
    <path d="M100,210 C94.477,210 90,205.523 90,200 C90,194.477 94.477,190 100,190 C105.523,190 110,194.477 110,200 C110,205.523 105.523,210 100,210 z" fill="#2BA4FF"/>
    <path d="M200,210 C194.477,210 190,205.523 190,200 C190,194.477 194.477,190 200,190 C205.523,190 210,194.477 210,200 C210,205.523 205.523,210 200,210 z" fill="#2BA4FF"/>
    <path d="M300,210 C294.477,210 290,205.523 290,200 C290,194.477 294.477,190 300,190 C305.523,190 310,194.477 310,200 C310,205.523 305.523,210 300,210 z" fill="#2BA4FF"/>
    <path d="M100,310 C94.477,310 90,305.523 90,300 C90,294.477 94.477,290 100,290 C105.523,290 110,294.477 110,300 C110,305.523 105.523,310 100,310 z" fill="#38C400"/>
    <path d="M200,310 C194.477,310 190,305.523 190,300 C190,294.477 194.477,290 200,290 C205.523,290 210,294.477 210,300 C210,305.523 205.523,310 200,310 z" fill="#2BA4FF"/>
    <path d="M300,310 C294.477,310 290,305.523 290,300 C290,294.477 294.477,290 300,290 C305.523,290 310,294.477 310,300 C310,305.523 305.523,310 300,310 z" fill="#2BA4FF"/>
    <path d="M180.5,250.5 L220.5,250.5" fill-opacity="0" stroke="#EE0000" stroke-width="3"/>
    <text transform="matrix(1, 0, 0, 1, 226.224, 175)">
      <tspan x="-16.224" y="8" font-family="HelveticaNeue-MediumItalic" font-size="24" fill="#959595">NE</tspan>
    </text>
    <text transform="matrix(1, 0, 0, 1, 217.56, 325)">
      <tspan x="-7.56" y="8" font-family="HelveticaNeue-MediumItalic" font-size="24" fill="#959595">E</tspan>
    </text>
    <text transform="matrix(1, 0, 0, 1, 90, 315)">
      <tspan x="-7.332" y="8" font-family="HelveticaNeue-MediumItalic" font-size="24" fill="#38C400">p</tspan>
    </text>
    <text transform="matrix(1, 0, 0, 1, 235.669, 271.5)">
      <tspan x="-15.669" y="6.5" font-family="HelveticaNeue-MediumItalic" font-size="18" fill="#EE0000">mid</tspan>
    </text>
  </g>
  <g id="below" display="none">
    <path d="M100.5,300.5 L340.5,220.5" fill-opacity="0" stroke="#38C400" stroke-width="4"/>
    <path d="M280.5,250.5 L320.5,250.5" fill-opacity="0" stroke="#EE0000" stroke-width="3"/>
    <text transform="matrix(1, 0, 0, 1, 341.169, 271.5)">
      <tspan x="-20.673" y="6.5" font-family="HelveticaNeue-MediumItalic" font-size="18" fill="#EE0000">mid2</tspan>
    </text>
  </g>
  <g id="above">
    <path d="M100.5,300.5 L340.5,140.5" fill-opacity="0" stroke="#38C400" stroke-width="4"/>
    <path d="M280.362,150.5 L320.362,150.5" fill-opacity="0" stroke="#EE0000" stroke-width="3"/>
    <text transform="matrix(1, 0, 0, 1, 324.431, 126.7)">
      <tspan x="-20.673" y="6.5" font-family="HelveticaNeue-MediumItalic" font-size="18" fill="#EE0000">mid2</tspan>
    </text>
  </g>
</svg>
