<?xml version="1.0" encoding="UTF-8"?>
<!DOCTYPE svg PUBLIC "-//W3C//DTD SVG 1.1//EN" "http://www.w3.org/Graphics/SVG/1.1/DTD/svg11.dtd">
<svg version="1.1" xmlns="http://www.w3.org/2000/svg" xmlns:xlink="http://www.w3.org/1999/xlink" x="0" y="0" width="700"
    height="100" viewBox="0, 0, 700, 100">
    <g id="Layer_1">
        <g>
            <path d="M73.333,50.5 L99.733,50.5" fill-opacity="0" stroke="#2BA4FF" stroke-width="3" />
            <path d="M99.733,54.7 L110.933,50.5 L99.733,46.3 z" fill="#2BA4FF" fill-opacity="1" stroke="#2BA4FF"
                stroke-width="3" stroke-opacity="1" />
        </g>
        <g id="Node">
            <g>
                <g>
                    <path d="M114.978,20.5 L315.236,20.5 L314.687,80.5 L114.978,80.5 L114.978,20.5 z" fill="#E0F2FF" />
                    <path d="M114.978,20.5 L315.236,20.5 L314.687,80.5 L114.978,80.5 L114.978,20.5 z" fill-opacity="0"
                        stroke="#2BA4FF" stroke-width="3" />
                </g>
                <path d="M174.978,20.5 L174.978,80.5" fill-opacity="0" stroke="#2BA4FF" stroke-width="3" />
                <path d="M234.978,20.5 L234.978,80.5" fill-opacity="0" stroke="#2BA4FF" stroke-width="3" />
            </g>
            <text transform="matrix(1, 0, 0, 1, 144, 51)">
                <tspan x="-16.41" y="8" font-family="HelveticaNeue-MediumItalic" font-size="30" fill="#2BA4FF">Yb
                </tspan>
            </text>
            <text transform="matrix(1, 0, 0, 1, 204.478, 48)">
                <tspan x="-18.06" y="10.5" font-family="HelveticaNeue-MediumItalic" font-size="28" fill="#2BA4FF">Xc
                </tspan>
            </text>
            <text transform="matrix(1, 0, 0, 1, 274.727, 53)">
                <tspan x="-34.908" y="4.5" font-family="HelveticaNeue-MediumItalic" font-size="24" fill="#2BA4FF">1/Mcb
                </tspan>
            </text>
        </g>
        <g>
            <path d="M314.978,48.499 L341.378,48.499" fill-opacity="0" stroke="#2BA4FF" stroke-width="3" />
            <path d="M341.378,52.699 L352.578,48.499 L341.378,44.299 z" fill="#2BA4FF" fill-opacity="1" stroke="#2BA4FF"
                stroke-width="3" stroke-opacity="1" />
        </g>
        <g id="Node">
            <g>
                <g>
                    <path d="M355.436,20.5 L555.694,20.5 L555.145,80.5 L355.436,80.5 L355.436,20.5 z" fill="#E0F2FF" />
                    <path d="M355.436,20.5 L555.694,20.5 L555.145,80.5 L355.436,80.5 L355.436,20.5 z" fill-opacity="0"
                        stroke="#2BA4FF" stroke-width="3" />
                </g>
                <path d="M415.436,20.5 L415.436,80.5" fill-opacity="0" stroke="#2BA4FF" stroke-width="3" />
                <path d="M475.436,20.5 L475.436,80.5" fill-opacity="0" stroke="#2BA4FF" stroke-width="3" />
            </g>
            <text transform="matrix(1, 0, 0, 1, 386.473, 51)">
                <tspan x="-18.615" y="8" font-family="HelveticaNeue-MediumItalic" font-size="30" fill="#2BA4FF">Yb
                </tspan>
            </text>
            <text transform="matrix(1, 0, 0, 1, 442, 48)">
                <tspan x="-18.06" y="10.5" font-family="HelveticaNeue-MediumItalic" font-size="28" fill="#2BA4FF">X"a
                </tspan>
            </text>
            <text transform="matrix(1, 0, 0, 1, 515.185, 53)">
                <tspan x="-35.568" y="4.5" font-family="HelveticaNeue-MediumItalic" font-size="24" fill="#2BA4FF">1/Mab
                </tspan>
            </text>
        </g>
        <g>
            <path d="M558.645,50.499 L585.045,50.499" fill-opacity="0" stroke="#2BA4FF" stroke-width="3" />
            <path d="M585.045,54.699 L596.245,50.499 L585.045,46.299 z" fill="#2BA4FF" fill-opacity="1" stroke="#2BA4FF"
                stroke-width="3" stroke-opacity="1" />
        </g>
        <g id="Null">
            <g>
                <path d="M598.645,30.5 L677.978,30.5 L677.978,70.5 L598.645,70.5 L598.645,30.5 z" fill="#E0F2FF" />
                <path d="M598.645,30.5 L677.978,30.5 L677.978,70.5 L598.645,70.5 L598.645,30.5 z" fill-opacity="0"
                    stroke="#2BA4FF" stroke-width="3" />
            </g>
            <text transform="matrix(1, 0, 0, 1, 637.812, 50.125)">
                <tspan x="-31.332" y="8.375" font-family="HelveticaNeue-MediumItalic" font-size="24" fill="#2BA4FF">NULL
                </tspan>
            </text>
        </g>
        <g>
            <path d="M24.5,24.5 L72.5,24.5 L72.5,70.5 L24.5,70.5 L24.5,24.5 z" fill="#2BA4FF" />
            <path d="M24.5,24.5 L72.5,24.5 L72.5,70.5 L24.5,70.5 L24.5,24.5 z" fill-opacity="0" stroke="#2BA4FF"
                stroke-width="3" />
        </g>
    </g>
</svg>