<?xml version="1.0" encoding="UTF-8"?>
<!DOCTYPE svg PUBLIC "-//W3C//DTD SVG 1.1//EN" "http://www.w3.org/Graphics/SVG/1.1/DTD/svg11.dtd">
<svg version="1.1" xmlns="http://www.w3.org/2000/svg" xmlns:xlink="http://www.w3.org/1999/xlink" x="0" y="0" width="700" height="700" viewBox="0, 0, 700, 700">
  <g id="Layer1">
    <path d="M20.5,40.5 L60.5,40.5 L60.5,660.5 L20.5,660.5 L20.5,40.5 z" fill-opacity="0" stroke="#2BA4FF" stroke-width="3"/>
    <path d="M20.5,620.5 L60.5,620.5" fill-opacity="0" stroke="#2BA4FF" stroke-width="3"/>
    <g>
      <path d="M20.5,580.5 L60.5,580.5" fill="#2BA4FF"/>
      <path d="M20.5,580.5 L60.5,580.5" fill-opacity="0" stroke="#2BA4FF" stroke-width="3"/>
    </g>
    <g>
      <g>
        <path d="M20.5,140.5 L60.5,140.5 L60.5,180.5 L20.5,180.5 L20.5,140.5 z" fill="#2BA4FF"/>
        <path d="M20.5,140.5 L60.5,140.5 L60.5,180.5 L20.5,180.5 L20.5,140.5 z" fill-opacity="0" stroke="#2BA4FF" stroke-width="3"/>
      </g>
      <text transform="matrix(1, 0, 0, 1, 37.348, 160)">
        <tspan x="-18.012" y="13" font-family="HelveticaNeue-MediumItalic" font-size="36" fill="#FFFFFF">Y</tspan>
        <tspan x="4.668" y="13" font-family="HelveticaNeue-MediumItalic" font-size="24" fill="#FFFFFF">c</tspan>
      </text>
    </g>
    <g>
      <g>
        <path d="M20.5,320.5 L60.5,320.5 L60.5,360.5 L20.5,360.5 L20.5,320.5 z" fill="#2BA4FF"/>
        <path d="M20.5,320.5 L60.5,320.5 L60.5,360.5 L20.5,360.5 L20.5,320.5 z" fill-opacity="0" stroke="#2BA4FF" stroke-width="3"/>
      </g>
      <text transform="matrix(1, 0, 0, 1, 39.5, 343)">
        <tspan x="-18.672" y="12" font-family="HelveticaNeue-MediumItalic" font-size="36" fill="#FFFFFF">Y</tspan>
        <tspan x="4.008" y="12" font-family="HelveticaNeue-MediumItalic" font-size="24" fill="#FFFFFF">d</tspan>
      </text>
    </g>
    <g>
      <g>
        <path d="M20.5,440.5 L60.5,440.5 L60.5,480.5 L20.5,480.5 L20.5,440.5 z" fill="#2BA4FF"/>
        <path d="M20.5,440.5 L60.5,440.5 L60.5,480.5 L20.5,480.5 L20.5,440.5 z" fill-opacity="0" stroke="#2BA4FF" stroke-width="3"/>
      </g>
      <text transform="matrix(1, 0, 0, 1, 39.5, 460)">
        <tspan x="-18.012" y="13" font-family="HelveticaNeue-MediumItalic" font-size="36" fill="#FFFFFF">Y</tspan>
        <tspan x="4.668" y="13" font-family="HelveticaNeue-MediumItalic" font-size="24" fill="#FFFFFF">a</tspan>
      </text>
    </g>
    <g>
      <path d="M60.5,600.5 L86.9,600.5" fill-opacity="0" stroke="#2BA4FF" stroke-width="3"/>
      <path d="M86.9,604.7 L98.1,600.5 L86.9,596.3 z" fill="#2BA4FF" fill-opacity="1" stroke="#2BA4FF" stroke-width="3" stroke-opacity="1"/>
    </g>
    <g>
      <path d="M60.5,640.5 L86.9,640.5" fill-opacity="0" stroke="#2BA4FF" stroke-width="3"/>
      <path d="M86.9,644.7 L98.1,640.5 L86.9,636.3 z" fill="#2BA4FF" fill-opacity="1" stroke="#2BA4FF" stroke-width="3" stroke-opacity="1"/>
    </g>
    <g>
      <path d="M60.5,460.5 L86.9,460.5" fill-opacity="0" stroke="#2BA4FF" stroke-width="3"/>
      <path d="M86.9,464.7 L98.1,460.5 L86.9,456.3 z" fill="#2BA4FF" fill-opacity="1" stroke="#2BA4FF" stroke-width="3" stroke-opacity="1"/>
    </g>
    <g>
      <path d="M60.5,340.5 L86.9,340.5" fill-opacity="0" stroke="#2BA4FF" stroke-width="3"/>
      <path d="M86.9,344.7 L98.1,340.5 L86.9,336.3 z" fill="#2BA4FF" fill-opacity="1" stroke="#2BA4FF" stroke-width="3" stroke-opacity="1"/>
    </g>
    <g>
      <path d="M300.5,158.5 L326.9,158.5" fill-opacity="0" stroke="#2BA4FF" stroke-width="3"/>
      <path d="M326.9,162.7 L338.1,158.5 L326.9,154.3 z" fill="#2BA4FF" fill-opacity="1" stroke="#2BA4FF" stroke-width="3" stroke-opacity="1"/>
    </g>
    <g>
      <path d="M60.5,160.5 L86.9,160.5" fill-opacity="0" stroke="#2BA4FF" stroke-width="3"/>
      <path d="M86.9,164.7 L98.1,160.5 L86.9,156.3 z" fill="#2BA4FF" fill-opacity="1" stroke="#2BA4FF" stroke-width="3" stroke-opacity="1"/>
    </g>
    <g>
      <g>
        <path d="M102.145,620.5 L181.478,620.5 L181.478,660.5 L102.145,660.5 L102.145,620.5 z" fill="#E0F2FF"/>
        <path d="M102.145,620.5 L181.478,620.5 L181.478,660.5 L102.145,660.5 L102.145,620.5 z" fill-opacity="0" stroke="#2BA4FF" stroke-width="3"/>
      </g>
      <text transform="matrix(1, 0, 0, 1, 141.311, 640.125)">
        <tspan x="-31.332" y="8.375" font-family="HelveticaNeue-MediumItalic" font-size="24" fill="#2BA4FF">NULL</tspan>
      </text>
    </g>
    <g>
      <g>
        <path d="M102.145,581.5 L181.478,581.5 L181.478,621.5 L102.145,621.5 L102.145,581.5 z" fill="#E0F2FF"/>
        <path d="M102.145,581.5 L181.478,581.5 L181.478,621.5 L102.145,621.5 L102.145,581.5 z" fill-opacity="0" stroke="#2BA4FF" stroke-width="3"/>
      </g>
      <text transform="matrix(1, 0, 0, 1, 141.311, 601.125)">
        <tspan x="-31.332" y="8.375" font-family="HelveticaNeue-MediumItalic" font-size="24" fill="#2BA4FF">NULL</tspan>
      </text>
    </g>
    <g id="Null">
      <g>
        <path d="M340.5,138.5 L419.833,138.5 L419.833,178.5 L340.5,178.5 L340.5,138.5 z" fill="#E0F2FF"/>
        <path d="M340.5,138.5 L419.833,138.5 L419.833,178.5 L340.5,178.5 L340.5,138.5 z" fill-opacity="0" stroke="#2BA4FF" stroke-width="3"/>
      </g>
      <text transform="matrix(1, 0, 0, 1, 379.667, 158.125)">
        <tspan x="-31.332" y="8.375" font-family="HelveticaNeue-MediumItalic" font-size="24" fill="#2BA4FF">NULL</tspan>
      </text>
    </g>
    <g id="Node">
      <g>
        <g>
          <path d="M100.5,130.5 L300.758,130.5 L300.209,190.5 L100.5,190.5 L100.5,130.5 z" fill="#E0F2FF"/>
          <path d="M100.5,130.5 L300.758,130.5 L300.209,190.5 L100.5,190.5 L100.5,130.5 z" fill-opacity="0" stroke="#2BA4FF" stroke-width="3"/>
        </g>
        <path d="M160.5,130.5 L160.5,190.5" fill-opacity="0" stroke="#2BA4FF" stroke-width="3"/>
        <path d="M220.5,130.5 L220.5,190.5" fill-opacity="0" stroke="#2BA4FF" stroke-width="3"/>
      </g>
      <text transform="matrix(1, 0, 0, 1, 131.537, 161)">
        <tspan x="-18.615" y="8" font-family="HelveticaNeue-MediumItalic" font-size="30" fill="#2BA4FF">Yb</tspan>
      </text>
      <text transform="matrix(1, 0, 0, 1, 190, 158)">
        <tspan x="-18.06" y="10.5" font-family="HelveticaNeue-MediumItalic" font-size="30" fill="#2BA4FF">Xc</tspan>
      </text>
      <text transform="matrix(1, 0, 0, 1, 260.249, 163)">
        <tspan x="-35.568" y="4.5" font-family="HelveticaNeue-MediumItalic" font-size="24" fill="#2BA4FF">1/Mcb</tspan>
      </text>
    </g>
    <g id="Node">
      <g>
        <g>
          <path d="M100.5,310.5 L300.758,310.5 L300.209,370.5 L100.5,370.5 L100.5,310.5 z" fill="#E0F2FF"/>
          <path d="M100.5,310.5 L300.758,310.5 L300.209,370.5 L100.5,370.5 L100.5,310.5 z" fill-opacity="0" stroke="#2BA4FF" stroke-width="3"/>
        </g>
        <path d="M160.5,310.5 L160.5,370.5" fill-opacity="0" stroke="#2BA4FF" stroke-width="3"/>
        <path d="M220.5,310.5 L220.5,370.5" fill-opacity="0" stroke="#2BA4FF" stroke-width="3"/>
      </g>
      <text transform="matrix(1, 0, 0, 1, 130.537, 343)">
        <tspan x="-21.96" y="6" font-family="HelveticaNeue-MediumItalic" font-size="30" fill="#2BA4FF">Yc'</tspan>
      </text>
      <text transform="matrix(1, 0, 0, 1, 188.333, 339.75)">
        <tspan x="-18.885" y="8.75" font-family="HelveticaNeue-MediumItalic" font-size="30" fill="#2BA4FF">Xd</tspan>
      </text>
      <text transform="matrix(1, 0, 0, 1, 260.249, 343)">
        <tspan x="-35.568" y="4.5" font-family="HelveticaNeue-MediumItalic" font-size="24" fill="#2BA4FF">1/Mdc</tspan>
      </text>
    </g>
    <g>
      <path d="M300.5,338.5 L326.9,338.5" fill-opacity="0" stroke="#2BA4FF" stroke-width="3"/>
      <path d="M326.9,342.7 L338.1,338.5 L326.9,334.3 z" fill="#2BA4FF" fill-opacity="1" stroke="#2BA4FF" stroke-width="3" stroke-opacity="1"/>
    </g>
    <g id="Node">
      <g>
        <g>
          <path d="M340.958,310.5 L541.216,310.5 L540.667,370.5 L340.958,370.5 L340.958,310.5 z" fill="#E0F2FF"/>
          <path d="M340.958,310.5 L541.216,310.5 L540.667,370.5 L340.958,370.5 L340.958,310.5 z" fill-opacity="0" stroke="#2BA4FF" stroke-width="3"/>
        </g>
        <path d="M400.958,310.5 L400.958,370.5" fill-opacity="0" stroke="#2BA4FF" stroke-width="3"/>
        <path d="M460.958,310.5 L460.958,370.5" fill-opacity="0" stroke="#2BA4FF" stroke-width="3"/>
      </g>
      <text transform="matrix(1, 0, 0, 1, 371.995, 341)">
        <tspan x="-16.41" y="8" font-family="HelveticaNeue-MediumItalic" font-size="30" fill="#2BA4FF">Ye</tspan>
      </text>
      <text transform="matrix(1, 0, 0, 1, 430.458, 340)">
        <tspan x="-18.885" y="9" font-family="HelveticaNeue-MediumItalic" font-size="30" fill="#2BA4FF">Xd</tspan>
      </text>
      <text transform="matrix(1, 0, 0, 1, 500.707, 343)">
        <tspan x="-35.568" y="4.5" font-family="HelveticaNeue-MediumItalic" font-size="24" fill="#2BA4FF">1/Mde</tspan>
      </text>
    </g>
    <g>
      <path d="M544.167,340.5 L570.567,340.5" fill-opacity="0" stroke="#2BA4FF" stroke-width="3"/>
      <path d="M570.567,344.7 L581.767,340.5 L570.567,336.3 z" fill="#2BA4FF" fill-opacity="1" stroke="#2BA4FF" stroke-width="3" stroke-opacity="1"/>
    </g>
    <g id="Null">
      <g>
        <path d="M584.167,320.5 L663.5,320.5 L663.5,360.5 L584.167,360.5 L584.167,320.5 z" fill="#E0F2FF"/>
        <path d="M584.167,320.5 L663.5,320.5 L663.5,360.5 L584.167,360.5 L584.167,320.5 z" fill-opacity="0" stroke="#2BA4FF" stroke-width="3"/>
      </g>
      <text transform="matrix(1, 0, 0, 1, 623.333, 340.125)">
        <tspan x="-31.332" y="8.375" font-family="HelveticaNeue-MediumItalic" font-size="24" fill="#2BA4FF">NULL</tspan>
      </text>
    </g>
    <g id="Node">
      <g>
        <g>
          <path d="M102.145,430.5 L302.403,430.5 L301.854,490.5 L102.145,490.5 L102.145,430.5 z" fill="#E0F2FF"/>
          <path d="M102.145,430.5 L302.403,430.5 L301.854,490.5 L102.145,490.5 L102.145,430.5 z" fill-opacity="0" stroke="#2BA4FF" stroke-width="3"/>
        </g>
        <path d="M162.145,430.5 L162.145,490.5" fill-opacity="0" stroke="#2BA4FF" stroke-width="3"/>
        <path d="M222.145,430.5 L222.145,490.5" fill-opacity="0" stroke="#2BA4FF" stroke-width="3"/>
      </g>
      <text transform="matrix(1, 0, 0, 1, 133.182, 461)">
        <tspan x="-16.41" y="8" font-family="HelveticaNeue-MediumItalic" font-size="30" fill="#2BA4FF">Ye</tspan>
      </text>
      <text transform="matrix(1, 0, 0, 1, 191.645, 458)">
        <tspan x="-18.06" y="10.5" font-family="HelveticaNeue-MediumItalic" font-size="30" fill="#2BA4FF">Xa</tspan>
      </text>
      <text transform="matrix(1, 0, 0, 1, 261.894, 463)">
        <tspan x="-34.908" y="4.5" font-family="HelveticaNeue-MediumItalic" font-size="24" fill="#2BA4FF">1/Mae</tspan>
      </text>
    </g>
    <g>
      <path d="M302.145,458.499 L328.545,458.499" fill-opacity="0" stroke="#2BA4FF" stroke-width="3"/>
      <path d="M328.545,462.699 L339.745,458.499 L328.545,454.299 z" fill="#2BA4FF" fill-opacity="1" stroke="#2BA4FF" stroke-width="3" stroke-opacity="1"/>
    </g>
    <g id="Node">
      <g>
        <g>
          <path d="M342.603,430.5 L542.861,430.5 L542.311,490.5 L342.603,490.5 L342.603,430.5 z" fill="#E0F2FF"/>
          <path d="M342.603,430.5 L542.861,430.5 L542.311,490.5 L342.603,490.5 L342.603,430.5 z" fill-opacity="0" stroke="#2BA4FF" stroke-width="3"/>
        </g>
        <path d="M402.603,430.5 L402.603,490.5" fill-opacity="0" stroke="#2BA4FF" stroke-width="3"/>
        <path d="M462.603,430.5 L462.603,490.5" fill-opacity="0" stroke="#2BA4FF" stroke-width="3"/>
      </g>
      <text transform="matrix(1, 0, 0, 1, 373.639, 461)">
        <tspan x="-18.615" y="8" font-family="HelveticaNeue-MediumItalic" font-size="30" fill="#2BA4FF">Yb</tspan>
      </text>
      <text transform="matrix(1, 0, 0, 1, 432.103, 458)">
        <tspan x="-18.06" y="10.5" font-family="HelveticaNeue-MediumItalic" font-size="30" fill="#2BA4FF">Xa</tspan>
      </text>
      <text transform="matrix(1, 0, 0, 1, 502.351, 463)">
        <tspan x="-35.568" y="4.5" font-family="HelveticaNeue-MediumItalic" font-size="24" fill="#2BA4FF">1/Mab</tspan>
      </text>
    </g>
    <g>
      <path d="M545.811,460.499 L572.211,460.499" fill-opacity="0" stroke="#2BA4FF" stroke-width="3"/>
      <path d="M572.211,464.699 L583.411,460.499 L572.211,456.299 z" fill="#2BA4FF" fill-opacity="1" stroke="#2BA4FF" stroke-width="3" stroke-opacity="1"/>
    </g>
    <g id="Null">
      <g>
        <path d="M585.811,440.5 L665.144,440.5 L665.144,480.5 L585.811,480.5 L585.811,440.5 z" fill="#E0F2FF"/>
        <path d="M585.811,440.5 L665.144,440.5 L665.144,480.5 L585.811,480.5 L585.811,440.5 z" fill-opacity="0" stroke="#2BA4FF" stroke-width="3"/>
      </g>
      <text transform="matrix(1, 0, 0, 1, 624.978, 460.125)">
        <tspan x="-31.332" y="8.375" font-family="HelveticaNeue-MediumItalic" font-size="24" fill="#2BA4FF">NULL</tspan>
      </text>
    </g>
    <text transform="matrix(1, 0, 0, 1, 40.339, 598.833)">
      <tspan x="-6.672" y="8" font-family="HelveticaNeue-MediumItalic" font-size="24" fill="#2BA4FF">1</tspan>
    </text>
    <text transform="matrix(1, 0, 0, 1, 40.339, 640.5)">
      <tspan x="-6.672" y="8" font-family="HelveticaNeue-MediumItalic" font-size="24" fill="#2BA4FF">0</tspan>
    </text>
  </g>
</svg>
