<?xml version="1.0" encoding="UTF-8"?>
<!DOCTYPE svg PUBLIC "-//W3C//DTD SVG 1.1//EN" "http://www.w3.org/Graphics/SVG/1.1/DTD/svg11.dtd">
<svg version="1.1" xmlns="http://www.w3.org/2000/svg" xmlns:xlink="http://www.w3.org/1999/xlink" x="0" y="0" width="1000" height="400" viewBox="0, 0, 1000, 400">
  <g id="1">
    <path d="M80.5,60.5 L80.5,340.5" fill-opacity="0" stroke="#959595" stroke-width="3"/>
    <path d="M180.5,60.5 L180.5,340.5" fill-opacity="0" stroke="#959595" stroke-width="3"/>
    <path d="M280.5,60.5 L280.5,340.5" fill-opacity="0" stroke="#959595" stroke-width="3"/>
    <path d="M40.5,100.5 L320.5,100.5" fill-opacity="0" stroke="#959595" stroke-width="3"/>
    <path d="M40.5,200.5 L320.5,200.5" fill-opacity="0" stroke="#959595" stroke-width="3"/>
    <path d="M40.5,300.5 L320.5,300.5" fill-opacity="0" stroke="#959595" stroke-width="3"/>
    <path d="M80,110 C74.477,110 70,105.523 70,100 C70,94.477 74.477,90 80,90 C85.523,90 90,94.477 90,100 C90,105.523 85.523,110 80,110 z" fill="#2BA4FF"/>
    <path d="M180,110 C174.477,110 170,105.523 170,100 C170,94.477 174.477,90 180,90 C185.523,90 190,94.477 190,100 C190,105.523 185.523,110 180,110 z" fill="#2BA4FF"/>
    <path d="M280,110 C274.477,110 270,105.523 270,100 C270,94.477 274.477,90 280,90 C285.523,90 290,94.477 290,100 C290,105.523 285.523,110 280,110 z" fill="#2BA4FF"/>
    <path d="M80,210 C74.477,210 70,205.523 70,200 C70,194.477 74.477,190 80,190 C85.523,190 90,194.477 90,200 C90,205.523 85.523,210 80,210 z" fill="#2BA4FF"/>
    <path d="M180,210 C174.477,210 170,205.523 170,200 C170,194.477 174.477,190 180,190 C185.523,190 190,194.477 190,200 C190,205.523 185.523,210 180,210 z" fill="#2BA4FF"/>
    <path d="M280,210 C274.477,210 270,205.523 270,200 C270,194.477 274.477,190 280,190 C285.523,190 290,194.477 290,200 C290,205.523 285.523,210 280,210 z" fill="#2BA4FF"/>
    <path d="M80,310 C74.477,310 70,305.523 70,300 C70,294.477 74.477,290 80,290 C85.523,290 90,294.477 90,300 C90,305.523 85.523,310 80,310 z" fill="#38C400"/>
    <path d="M180,310 C174.477,310 170,305.523 170,300 C170,294.477 174.477,290 180,290 C185.523,290 190,294.477 190,300 C190,305.523 185.523,310 180,310 z" fill="#2BA4FF"/>
    <path d="M280,310 C274.477,310 270,305.523 270,300 C270,294.477 274.477,290 280,290 C285.523,290 290,294.477 290,300 C290,305.523 285.523,310 280,310 z" fill="#2BA4FF"/>
    <path d="M160.5,250.5 L200.5,250.5" fill-opacity="0" stroke="#EE0000" stroke-width="3"/>
    <text transform="matrix(1, 0, 0, 1, 206.224, 175)">
      <tspan x="-16.224" y="8" font-family="HelveticaNeue-MediumItalic" font-size="24" fill="#959595">NE</tspan>
    </text>
    <text transform="matrix(1, 0, 0, 1, 197.56, 325)">
      <tspan x="-7.56" y="8" font-family="HelveticaNeue-MediumItalic" font-size="24" fill="#959595">E</tspan>
    </text>
    <text transform="matrix(1, 0, 0, 1, 70, 315)">
      <tspan x="-7.332" y="8" font-family="HelveticaNeue-MediumItalic" font-size="24" fill="#38C400">p</tspan>
    </text>
    <text transform="matrix(1, 0, 0, 1, 215.669, 271.5)">
      <tspan x="-15.669" y="6.5" font-family="HelveticaNeue-MediumItalic" font-size="18" fill="#EE0000">mid</tspan>
    </text>
    <path d="M80.5,300.5 L320.5,220.5" fill-opacity="0" stroke="#38C400" stroke-width="4"/>
  </g>
  <g id="2">
    <path d="M400.5,60.5 L400.5,340.5" fill-opacity="0" stroke="#959595" stroke-width="3"/>
    <path d="M500.5,60.5 L500.5,340.5" fill-opacity="0" stroke="#959595" stroke-width="3"/>
    <path d="M600.5,60.5 L600.5,340.5" fill-opacity="0" stroke="#959595" stroke-width="3"/>
    <path d="M360.5,100.5 L640.5,100.5" fill-opacity="0" stroke="#959595" stroke-width="3"/>
    <path d="M360.5,200.5 L640.5,200.5" fill-opacity="0" stroke="#959595" stroke-width="3"/>
    <path d="M360.5,300.5 L640.5,300.5" fill-opacity="0" stroke="#959595" stroke-width="3"/>
    <path d="M400,110 C394.477,110 390,105.523 390,100 C390,94.477 394.477,90 400,90 C405.523,90 410,94.477 410,100 C410,105.523 405.523,110 400,110 z" fill="#2BA4FF"/>
    <path d="M500,110 C494.477,110 490,105.523 490,100 C490,94.477 494.477,90 500,90 C505.523,90 510,94.477 510,100 C510,105.523 505.523,110 500,110 z" fill="#2BA4FF"/>
    <path d="M600,110 C594.477,110 590,105.523 590,100 C590,94.477 594.477,90 600,90 C605.523,90 610,94.477 610,100 C610,105.523 605.523,110 600,110 z" fill="#2BA4FF"/>
    <path d="M400,210 C394.477,210 390,205.523 390,200 C390,194.477 394.477,190 400,190 C405.523,190 410,194.477 410,200 C410,205.523 405.523,210 400,210 z" fill="#2BA4FF"/>
    <path d="M500,210 C494.477,210 490,205.523 490,200 C490,194.477 494.477,190 500,190 C505.523,190 510,194.477 510,200 C510,205.523 505.523,210 500,210 z" fill="#2BA4FF"/>
    <path d="M600,210 C594.477,210 590,205.523 590,200 C590,194.477 594.477,190 600,190 C605.523,190 610,194.477 610,200 C610,205.523 605.523,210 600,210 z" fill="#2BA4FF"/>
    <path d="M400,310 C394.477,310 390,305.523 390,300 C390,294.477 394.477,290 400,290 C405.523,290 410,294.477 410,300 C410,305.523 405.523,310 400,310 z" fill="#38C400"/>
    <path d="M500,310 C494.477,310 490,305.523 490,300 C490,294.477 494.477,290 500,290 C505.523,290 510,294.477 510,300 C510,305.523 505.523,310 500,310 z" fill="#2BA4FF"/>
    <path d="M600,310 C594.477,310 590,305.523 590,300 C590,294.477 594.477,290 600,290 C605.523,290 610,294.477 610,300 C610,305.523 605.523,310 600,310 z" fill="#2BA4FF"/>
    <path d="M480.5,250.5 L520.5,250.5" fill-opacity="0" stroke="#EE0000" stroke-width="3"/>
    <text transform="matrix(1, 0, 0, 1, 526.224, 175)">
      <tspan x="-16.224" y="8" font-family="HelveticaNeue-MediumItalic" font-size="24" fill="#959595">NE</tspan>
    </text>
    <text transform="matrix(1, 0, 0, 1, 517.56, 325)">
      <tspan x="-7.56" y="8" font-family="HelveticaNeue-MediumItalic" font-size="24" fill="#959595">E</tspan>
    </text>
    <text transform="matrix(1, 0, 0, 1, 390, 315)">
      <tspan x="-7.332" y="8" font-family="HelveticaNeue-MediumItalic" font-size="24" fill="#38C400">p</tspan>
    </text>
    <text transform="matrix(1, 0, 0, 1, 535.669, 271.5)">
      <tspan x="-15.669" y="6.5" font-family="HelveticaNeue-MediumItalic" font-size="18" fill="#EE0000">mid</tspan>
    </text>
    <path d="M400.5,300.5 L640.5,140.5" fill-opacity="0" stroke="#38C400" stroke-width="4"/>
  </g>
  <g id="3">
    <path d="M720.5,60.5 L720.5,340.5" fill-opacity="0" stroke="#959595" stroke-width="3"/>
    <path d="M820.5,60.5 L820.5,340.5" fill-opacity="0" stroke="#959595" stroke-width="3"/>
    <path d="M920.5,60.5 L920.5,340.5" fill-opacity="0" stroke="#959595" stroke-width="3"/>
    <path d="M680.5,100.5 L960.5,100.5" fill-opacity="0" stroke="#959595" stroke-width="3"/>
    <path d="M680.5,200.5 L960.5,200.5" fill-opacity="0" stroke="#959595" stroke-width="3"/>
    <path d="M680.5,300.5 L960.5,300.5" fill-opacity="0" stroke="#959595" stroke-width="3"/>
    <path d="M720,110 C714.477,110 710,105.523 710,100 C710,94.477 714.477,90 720,90 C725.523,90 730,94.477 730,100 C730,105.523 725.523,110 720,110 z" fill="#2BA4FF"/>
    <path d="M820,110 C814.477,110 810,105.523 810,100 C810,94.477 814.477,90 820,90 C825.523,90 830,94.477 830,100 C830,105.523 825.523,110 820,110 z" fill="#2BA4FF"/>
    <path d="M920,110 C914.477,110 910,105.523 910,100 C910,94.477 914.477,90 920,90 C925.523,90 930,94.477 930,100 C930,105.523 925.523,110 920,110 z" fill="#2BA4FF"/>
    <path d="M720,210 C714.477,210 710,205.523 710,200 C710,194.477 714.477,190 720,190 C725.523,190 730,194.477 730,200 C730,205.523 725.523,210 720,210 z" fill="#2BA4FF"/>
    <path d="M820,210 C814.477,210 810,205.523 810,200 C810,194.477 814.477,190 820,190 C825.523,190 830,194.477 830,200 C830,205.523 825.523,210 820,210 z" fill="#2BA4FF"/>
    <path d="M920,210 C914.477,210 910,205.523 910,200 C910,194.477 914.477,190 920,190 C925.523,190 930,194.477 930,200 C930,205.523 925.523,210 920,210 z" fill="#2BA4FF"/>
    <path d="M720,310 C714.477,310 710,305.523 710,300 C710,294.477 714.477,290 720,290 C725.523,290 730,294.477 730,300 C730,305.523 725.523,310 720,310 z" fill="#38C400"/>
    <path d="M820,310 C814.477,310 810,305.523 810,300 C810,294.477 814.477,290 820,290 C825.523,290 830,294.477 830,300 C830,305.523 825.523,310 820,310 z" fill="#2BA4FF"/>
    <path d="M920,310 C914.477,310 910,305.523 910,300 C910,294.477 914.477,290 920,290 C925.523,290 930,294.477 930,300 C930,305.523 925.523,310 920,310 z" fill="#2BA4FF"/>
    <path d="M800.5,250.5 L840.5,250.5" fill-opacity="0" stroke="#EE0000" stroke-width="3"/>
    <text transform="matrix(1, 0, 0, 1, 846.224, 175)">
      <tspan x="-16.224" y="8" font-family="HelveticaNeue-MediumItalic" font-size="24" fill="#959595">NE</tspan>
    </text>
    <text transform="matrix(1, 0, 0, 1, 837.56, 325)">
      <tspan x="-7.56" y="8" font-family="HelveticaNeue-MediumItalic" font-size="24" fill="#959595">E</tspan>
    </text>
    <text transform="matrix(1, 0, 0, 1, 710, 315)">
      <tspan x="-7.332" y="8" font-family="HelveticaNeue-MediumItalic" font-size="24" fill="#38C400">p</tspan>
    </text>
    <text transform="matrix(1, 0, 0, 1, 855.669, 271.5)">
      <tspan x="-15.669" y="6.5" font-family="HelveticaNeue-MediumItalic" font-size="18" fill="#EE0000">mid</tspan>
    </text>
    <path d="M720.5,300.5 L960.5,180.5" fill-opacity="0" stroke="#38C400" stroke-width="4"/>
  </g>
</svg>
