<?xml version="1.0" encoding="UTF-8"?>
<!DOCTYPE svg PUBLIC "-//W3C//DTD SVG 1.1//EN" "http://www.w3.org/Graphics/SVG/1.1/DTD/svg11.dtd">
<svg version="1.1" xmlns="http://www.w3.org/2000/svg" xmlns:xlink="http://www.w3.org/1999/xlink" x="0" y="0" width="1000" height="700" viewBox="0, 0, 1000, 700">
  <g id="Layer_1"/>
  <g id="frustum">
    <g>
      <path d="M360.5,320.5 L481.167,340.5" fill-opacity="0" stroke="#009CF2" stroke-width="3"/>
      <path d="M481.167,340.5 L481.167,459.299" fill-opacity="0" stroke="#009CF2" stroke-width="3"/>
      <path d="M481.167,459.299 L360.5,440.5" fill-opacity="0" stroke="#009CF2" stroke-width="3"/>
      <path d="M360.5,440.5 L360.5,320.5" fill-opacity="0" stroke="#009CF2" stroke-width="3"/>
    </g>
    <g>
      <path d="M640.5,200.5 L761.167,220.5" fill-opacity="0" stroke="#009CF2" stroke-width="3"/>
      <path d="M761.167,220.5 L761.167,339.299" fill-opacity="0" stroke="#009CF2" stroke-width="3"/>
      <path d="M761.167,339.299 L640.5,320.5" fill-opacity="0" stroke="#009CF2" stroke-width="3"/>
      <path d="M640.5,320.5 L640.5,200.5" fill-opacity="0" stroke="#009CF2" stroke-width="3"/>
    </g>
    <path d="M360.5,320.5 L640.5,200.5" fill-opacity="0" stroke="#009CF2" stroke-width="3"/>
    <path d="M481.167,340.5 L761.167,220.5" fill-opacity="0" stroke="#009CF2" stroke-width="3"/>
    <path d="M360.5,440.5 L640.5,320.5" fill-opacity="0" stroke="#009CF2" stroke-width="3"/>
    <path d="M481.167,459.299 L761.167,339.299" fill-opacity="0" stroke="#009CF2" stroke-width="3"/>
  </g>
  <g id="objects">
    <path d="M180.5,540.5 L540.5,380.5" fill-opacity="0" stroke="#F37B00" stroke-width="3"/>
    <g>
      <path d="M520.5,360.5 L560.5,360.5 L560.5,400.5 L520.5,400.5 L520.5,360.5 z" fill-opacity="0" stroke="#F37B00" stroke-width="3"/>
      <path d="M520.5,360.5 L540.5,340.5" fill-opacity="0" stroke="#F37B00" stroke-width="3"/>
      <path d="M560.5,360.5 L580.5,340.5" fill-opacity="0" stroke="#F37B00" stroke-width="3"/>
      <path d="M580.5,340.5 L580.5,380.5" fill-opacity="0" stroke="#F37B00" stroke-width="3"/>
      <path d="M580.5,380.5 L560.5,400.5" fill-opacity="0" stroke="#F37B00" stroke-width="3"/>
      <path d="M540.5,340.5 L580.5,340.5" fill-opacity="0" stroke="#F37B00" stroke-width="3"/>
    </g>
    <g>
      <path d="M420.5,400.5 L458.5,407.167" fill-opacity="0" stroke="#F37B00" stroke-width="3"/>
      <path d="M420.5,440.5 L458.5,447.167" fill-opacity="0" stroke="#F37B00" stroke-width="3"/>
      <path d="M458.5,447.167 L458.5,407.167" fill-opacity="0" stroke="#F37B00" stroke-width="3"/>
      <path d="M420.5,400.5 L420.5,440.5" fill-opacity="0" stroke="#F37B00" stroke-width="3"/>
    </g>
  </g>
  <g id="labels">
    <text transform="matrix(1, 0, 0, 1, 276.016, 309.299)">
      <tspan x="-56.016" y="-6.5" font-family="HelveticaNeue-MediumItalic" font-size="24" fill="#7D7D7D">projection</tspan>
      <tspan x="-30.456" y="22.5" font-family="HelveticaNeue-MediumItalic" font-size="24" fill="#7D7D7D">plane</tspan>
    </text>
    <text transform="matrix(1, 0, 0, 1, 828.684, 275)">
      <tspan x="-48.684" y="8" font-family="HelveticaNeue-MediumItalic" font-size="24" fill="#7D7D7D">far plane</tspan>
    </text>
    <g>
      <path d="M360.5,320.5 L360.5,212.3" fill-opacity="0" stroke="#A6A6A6" stroke-width="2"/>
      <path d="M364.1,212.3 L360.5,202.7 L356.9,212.3 z" fill="#A6A6A6" fill-opacity="1" stroke="#A6A6A6" stroke-width="2" stroke-opacity="1"/>
    </g>
    <g>
      <path d="M481.167,459.299 L588.882,478.436" fill-opacity="0" stroke="#A6A6A6" stroke-width="2"/>
      <path d="M588.252,481.98 L598.334,480.115 L589.512,474.891 z" fill="#A6A6A6" fill-opacity="1" stroke="#A6A6A6" stroke-width="2" stroke-opacity="1"/>
    </g>
    <text transform="matrix(1, 0, 0, 1, 346, 195)">
      <tspan x="-6" y="8" font-family="HelveticaNeue-MediumItalic" font-size="24" fill="#7D7D7D">y</tspan>
    </text>
    <text transform="matrix(1, 0, 0, 1, 606, 495)">
      <tspan x="-6" y="8" font-family="HelveticaNeue-MediumItalic" font-size="24" fill="#7D7D7D">x</tspan>
    </text>
    <path d="M360.5,320.5 L80.5,440.5" fill-opacity="0" stroke="#B8B8B8" stroke-width="3" stroke-dasharray="9,6"/>
    <path d="M481.167,340.5 L199.833,459.299" fill-opacity="0" stroke="#B8B8B8" stroke-width="3" stroke-dasharray="9,6"/>
    <path d="M481.167,459.299 L199.833,581.1" fill-opacity="0" stroke="#B8B8B8" stroke-width="3" stroke-dasharray="9,6"/>
    <path d="M360.5,440.5 L80.5,560.5" fill-opacity="0" stroke="#B8B8B8" stroke-width="3" stroke-dasharray="9,6"/>
  </g>
</svg>
