<?xml version="1.0" encoding="UTF-8"?>
<!DOCTYPE svg PUBLIC "-//W3C//DTD SVG 1.1//EN" "http://www.w3.org/Graphics/SVG/1.1/DTD/svg11.dtd">
<svg version="1.1" xmlns="http://www.w3.org/2000/svg" xmlns:xlink="http://www.w3.org/1999/xlink" x="0" y="0" width="800" height="700" viewBox="0, 0, 800, 700">
  <g id="axes">
    <g>
      <path d="M100.5,640.5 L100.5,78.7" fill-opacity="0" stroke="#959595" stroke-width="5"/>
      <path d="M105.9,78.7 L100.5,64.3 L95.1,78.7 z" fill="#959595" fill-opacity="1" stroke="#959595" stroke-width="5" stroke-opacity="1"/>
    </g>
    <g>
      <path d="M60.5,600.5 L722.3,600.5" fill-opacity="0" stroke="#959595" stroke-width="5"/>
      <path d="M722.3,605.9 L736.7,600.5 L722.3,595.1 z" fill="#959595" fill-opacity="1" stroke="#959595" stroke-width="5" stroke-opacity="1"/>
    </g>
    <text transform="matrix(1, 0, 0, 1, 79, 70)">
      <tspan x="-9" y="5" font-family="HelveticaNeue-MediumItalic" font-size="36" fill="#959595">y</tspan>
    </text>
    <text transform="matrix(1, 0, 0, 1, 740, 631.25)">
      <tspan x="-9" y="3.75" font-family="HelveticaNeue-MediumItalic" font-size="36" fill="#959595">x</tspan>
    </text>
  </g>
  <g id="poly1" display="none">
    <g>
      <path d="M300.5,500.5 L200.5,340.5 L440.5,140.5 L680.5,340.5 L580.5,500.5 L440.5,360.5 L300.5,500.5 z" fill="#FFE5E5"/>
      <path d="M300.5,500.5 L200.5,340.5 L440.5,140.5 L680.5,340.5 L580.5,500.5 L440.5,360.5 L300.5,500.5 z" fill-opacity="0" stroke="#FF8080" stroke-width="3"/>
    </g>
  </g>
  <g id="scan1" display="none">
    <path d="M60.5,440.5 L740.5,440.5" fill-opacity="0" stroke="#2BA4FF" stroke-width="3"/>
    <path d="M260.5,440.5 L260.5,600.5" fill-opacity="0" stroke="#2BA4FF" stroke-width="3" stroke-dasharray="9,6"/>
    <path d="M360.5,440.5 L360.5,600.5" fill-opacity="0" stroke="#2BA4FF" stroke-width="3" stroke-dasharray="9,6"/>
    <path d="M520.5,440.5 L520.5,600.5" fill-opacity="0" stroke="#2BA4FF" stroke-width="3" stroke-dasharray="9,6"/>
    <path d="M620.5,440.5 L620.5,600.5" fill-opacity="0" stroke="#2BA4FF" stroke-width="3" stroke-dasharray="9,6"/>
    <g>
      <path d="M261,449 C255.477,449 251,444.523 251,439 C251,433.477 255.477,429 261,429 C266.523,429 271,433.477 271,439 C271,444.523 266.523,449 261,449 z" fill="#2BA4FF"/>
      <path d="M281,449 C275.477,449 271,444.523 271,439 C271,433.477 275.477,429 281,429 C286.523,429 291,433.477 291,439 C291,444.523 286.523,449 281,449 z" fill="#2BA4FF"/>
      <path d="M301,449 C295.477,449 291,444.523 291,439 C291,433.477 295.477,429 301,429 C306.523,429 311,433.477 311,439 C311,444.523 306.523,449 301,449 z" fill="#2BA4FF"/>
      <path d="M321,449 C315.477,449 311,444.523 311,439 C311,433.477 315.477,429 321,429 C326.523,429 331,433.477 331,439 C331,444.523 326.523,449 321,449 z" fill="#2BA4FF"/>
      <path d="M341,449 C335.477,449 331,444.523 331,439 C331,433.477 335.477,429 341,429 C346.523,429 351,433.477 351,439 C351,444.523 346.523,449 341,449 z" fill="#2BA4FF"/>
      <path d="M361,449 C355.477,449 351,444.523 351,439 C351,433.477 355.477,429 361,429 C366.523,429 371,433.477 371,439 C371,444.523 366.523,449 361,449 z" fill="#2BA4FF"/>
      <path d="M521,449 C515.477,449 511,444.523 511,439 C511,433.477 515.477,429 521,429 C526.523,429 531,433.477 531,439 C531,444.523 526.523,449 521,449 z" fill="#2BA4FF"/>
      <path d="M541,449 C535.477,449 531,444.523 531,439 C531,433.477 535.477,429 541,429 C546.523,429 551,433.477 551,439 C551,444.523 546.523,449 541,449 z" fill="#2BA4FF"/>
      <path d="M561,449 C555.477,449 551,444.523 551,439 C551,433.477 555.477,429 561,429 C566.523,429 571,433.477 571,439 C571,444.523 566.523,449 561,449 z" fill="#2BA4FF"/>
      <path d="M581,449 C575.477,449 571,444.523 571,439 C571,433.477 575.477,429 581,429 C586.523,429 591,433.477 591,439 C591,444.523 586.523,449 581,449 z" fill="#2BA4FF"/>
      <path d="M601,449 C595.477,449 591,444.523 591,439 C591,433.477 595.477,429 601,429 C606.523,429 611,433.477 611,439 C611,444.523 606.523,449 601,449 z" fill="#2BA4FF"/>
      <path d="M621,449 C615.477,449 611,444.523 611,439 C611,433.477 615.477,429 621,429 C626.523,429 631,433.477 631,439 C631,444.523 626.523,449 621,449 z" fill="#2BA4FF"/>
    </g>
    <text transform="matrix(1, 0, 0, 1, 257.672, 615)">
      <tspan x="-6.672" y="8" font-family="HelveticaNeue-MediumItalic" font-size="24" fill="#2BA4FF">a</tspan>
    </text>
    <text transform="matrix(1, 0, 0, 1, 364.321, 616.318)">
      <tspan x="-7.332" y="8" font-family="HelveticaNeue-MediumItalic" font-size="24" fill="#2BA4FF">b</tspan>
    </text>
    <text transform="matrix(1, 0, 0, 1, 521.328, 615)">
      <tspan x="-6.672" y="8" font-family="HelveticaNeue-MediumItalic" font-size="24" fill="#2BA4FF">c</tspan>
    </text>
    <text transform="matrix(1, 0, 0, 1, 620.654, 616.318)">
      <tspan x="-7.332" y="8" font-family="HelveticaNeue-MediumItalic" font-size="24" fill="#2BA4FF">d</tspan>
    </text>
  </g>
  <g id="poly2">
    <g>
      <path d="M161.828,540.5 L661.828,540.5 L661.828,260.5 L481.828,420.5 L481.828,340.5 L401.828,140.5 L301.828,260.5 L221.828,140.5 L161.828,300.5 z" fill="#FFE5E5"/>
      <path d="M161.828,540.5 L661.828,540.5 L661.828,260.5 L481.828,420.5 L481.828,340.5 L401.828,140.5 L301.828,260.5 L221.828,140.5 L161.828,300.5 z" fill-opacity="0" stroke="#FF8080" stroke-width="3"/>
    </g>
    <path d="M159.5,311 C153.977,311 149.5,306.523 149.5,301 C149.5,295.477 153.977,291 159.5,291 C165.023,291 169.5,295.477 169.5,301 C169.5,306.523 165.023,311 159.5,311 z" fill="#FF8080"/>
    <path d="M219.5,150 C213.977,150 209.5,145.523 209.5,140 C209.5,134.477 213.977,130 219.5,130 C225.023,130 229.5,134.477 229.5,140 C229.5,145.523 225.023,150 219.5,150 z" fill="#FF8080"/>
    <path d="M299.5,270 C293.977,270 289.5,265.523 289.5,260 C289.5,254.477 293.977,250 299.5,250 C305.023,250 309.5,254.477 309.5,260 C309.5,265.523 305.023,270 299.5,270 z" fill="#FF8080"/>
    <path d="M400,150 C394.477,150 390,145.523 390,140 C390,134.477 394.477,130 400,130 C405.523,130 410,134.477 410,140 C410,145.523 405.523,150 400,150 z" fill="#FF8080"/>
    <path d="M480,350 C474.477,350 470,345.523 470,340 C470,334.477 474.477,330 480,330 C485.523,330 490,334.477 490,340 C490,345.523 485.523,350 480,350 z" fill="#FF8080"/>
    <path d="M480,429.5 C474.477,429.5 470,425.023 470,419.5 C470,413.977 474.477,409.5 480,409.5 C485.523,409.5 490,413.977 490,419.5 C490,425.023 485.523,429.5 480,429.5 z" fill="#FF8080"/>
    <path d="M660.5,270 C654.977,270 650.5,265.523 650.5,260 C650.5,254.477 654.977,250 660.5,250 C666.023,250 670.5,254.477 670.5,260 C670.5,265.523 666.023,270 660.5,270 z" fill="#FF8080"/>
    <path d="M159.5,550 C153.977,550 149.5,545.523 149.5,540 C149.5,534.477 153.977,530 159.5,530 C165.023,530 169.5,534.477 169.5,540 C169.5,545.523 165.023,550 159.5,550 z" fill="#FF8080"/>
    <path d="M660.5,550 C654.977,550 650.5,545.523 650.5,540 C650.5,534.477 654.977,530 660.5,530 C666.023,530 670.5,534.477 670.5,540 C670.5,545.523 666.023,550 660.5,550 z" fill="#FF8080"/>
    <text transform="matrix(1, 0, 0, 1, 311.533, 282.125)">
      <tspan x="-6.672" y="8" font-family="HelveticaNeue-MediumItalic" font-size="24" fill="#EE0000">a</tspan>
    </text>
    <text transform="matrix(1, 0, 0, 1, 465.332, 363)">
      <tspan x="-7.332" y="8" font-family="HelveticaNeue-MediumItalic" font-size="24" fill="#EE0000">b</tspan>
    </text>
  </g>
  <g id="ya1">
    <path d="M60.5,260.5 L740.5,260.5" fill-opacity="0" stroke="#2BA4FF" stroke-width="3"/>
    <g>
      <path d="M200,270 C194.477,270 190,265.523 190,260 C190,254.477 194.477,250 200,250 C205.523,250 210,254.477 210,260 C210,265.523 205.523,270 200,270 z" fill="#2BA4FF"/>
      <path d="M220,270 C214.477,270 210,265.523 210,260 C210,254.477 214.477,250 220,250 C225.523,250 230,254.477 230,260 C230,265.523 225.523,270 220,270 z" fill="#2BA4FF"/>
      <path d="M240,270 C234.477,270 230,265.523 230,260 C230,254.477 234.477,250 240,250 C245.523,250 250,254.477 250,260 C250,265.523 245.523,270 240,270 z" fill="#2BA4FF"/>
      <path d="M260,270 C254.477,270 250,265.523 250,260 C250,254.477 254.477,250 260,250 C265.523,250 270,254.477 270,260 C270,265.523 265.523,270 260,270 z" fill="#2BA4FF"/>
      <path d="M280,270 C274.477,270 270,265.523 270,260 C270,254.477 274.477,250 280,250 C285.523,250 290,254.477 290,260 C290,265.523 285.523,270 280,270 z" fill="#2BA4FF"/>
      <path d="M300,270 C294.477,270 290,265.523 290,260 C290,254.477 294.477,250 300,250 C305.523,250 310,254.477 310,260 C310,265.523 305.523,270 300,270 z" fill="#2BA4FF"/>
      <path d="M480,270 C474.477,270 470,265.523 470,260 C470,254.477 474.477,250 480,250 C485.523,250 490,254.477 490,260 C490,265.523 485.523,270 480,270 z" fill="#2BA4FF"/>
      <path d="M500,270 C494.477,270 490,265.523 490,260 C490,254.477 494.477,250 500,250 C505.523,250 510,254.477 510,260 C510,265.523 505.523,270 500,270 z" fill="#2BA4FF"/>
      <path d="M520,270 C514.477,270 510,265.523 510,260 C510,254.477 514.477,250 520,250 C525.523,250 530,254.477 530,260 C530,265.523 525.523,270 520,270 z" fill="#2BA4FF"/>
      <path d="M540,270 C534.477,270 530,265.523 530,260 C530,254.477 534.477,250 540,250 C545.523,250 550,254.477 550,260 C550,265.523 545.523,270 540,270 z" fill="#2BA4FF"/>
      <path d="M560,270 C554.477,270 550,265.523 550,260 C550,254.477 554.477,250 560,250 C565.523,250 570,254.477 570,260 C570,265.523 565.523,270 560,270 z" fill="#2BA4FF"/>
      <path d="M580,270 C574.477,270 570,265.523 570,260 C570,254.477 574.477,250 580,250 C585.523,250 590,254.477 590,260 C590,265.523 585.523,270 580,270 z" fill="#2BA4FF"/>
      <path d="M180,270 C174.477,270 170,265.523 170,260 C170,254.477 174.477,250 180,250 C185.523,250 190,254.477 190,260 C190,265.523 185.523,270 180,270 z" fill="#2BA4FF"/>
      <path d="M600,270 C594.477,270 590,265.523 590,260 C590,254.477 594.477,250 600,250 C605.523,250 610,254.477 610,260 C610,265.523 605.523,270 600,270 z" fill="#2BA4FF"/>
      <path d="M620,270 C614.477,270 610,265.523 610,260 C610,254.477 614.477,250 620,250 C625.523,250 630,254.477 630,260 C630,265.523 625.523,270 620,270 z" fill="#2BA4FF"/>
      <path d="M640,270 C634.477,270 630,265.523 630,260 C630,254.477 634.477,250 640,250 C645.523,250 650,254.477 650,260 C650,265.523 645.523,270 640,270 z" fill="#2BA4FF"/>
      <path d="M660,270 C654.477,270 650,265.523 650,260 C650,254.477 654.477,250 660,250 C665.523,250 670,254.477 670,260 C670,265.523 665.523,270 660,270 z" fill="#2BA4FF"/>
      <path d="M460,270 C454.477,270 450,265.523 450,260 C450,254.477 454.477,250 460,250 C465.523,250 470,254.477 470,260 C470,265.523 465.523,270 460,270 z" fill="#2BA4FF"/>
    </g>
    <text transform="matrix(1, 0, 0, 1, 709.928, 244.103)">
      <tspan x="-13.128" y="8" font-family="HelveticaNeue-MediumItalic" font-size="24" fill="#2BA4FF">Ya</tspan>
    </text>
  </g>
  <g id="ya2" display="none">
    <path d="M60.5,260.5 L740.5,260.5" fill-opacity="0" stroke="#2BA4FF" stroke-width="3"/>
    <g>
      <path d="M200,270 C194.477,270 190,265.523 190,260 C190,254.477 194.477,250 200,250 C205.523,250 210,254.477 210,260 C210,265.523 205.523,270 200,270 z" fill="#2BA4FF"/>
      <path d="M220,270 C214.477,270 210,265.523 210,260 C210,254.477 214.477,250 220,250 C225.523,250 230,254.477 230,260 C230,265.523 225.523,270 220,270 z" fill="#2BA4FF"/>
      <path d="M240,270 C234.477,270 230,265.523 230,260 C230,254.477 234.477,250 240,250 C245.523,250 250,254.477 250,260 C250,265.523 245.523,270 240,270 z" fill="#2BA4FF"/>
      <path d="M260,270 C254.477,270 250,265.523 250,260 C250,254.477 254.477,250 260,250 C265.523,250 270,254.477 270,260 C270,265.523 265.523,270 260,270 z" fill="#2BA4FF"/>
      <path d="M280,270 C274.477,270 270,265.523 270,260 C270,254.477 274.477,250 280,250 C285.523,250 290,254.477 290,260 C290,265.523 285.523,270 280,270 z" fill="#2BA4FF"/>
      <path d="M300,270 C294.477,270 290,265.523 290,260 C290,254.477 294.477,250 300,250 C305.523,250 310,254.477 310,260 C310,265.523 305.523,270 300,270 z" fill="#2BA4FF"/>
      <path d="M342,270 C336.477,270 332,265.523 332,260 C332,254.477 336.477,250 342,250 C347.523,250 352,254.477 352,260 C352,265.523 347.523,270 342,270 z" fill="#2BA4FF"/>
      <path d="M361.5,270 C355.977,270 351.5,265.523 351.5,260 C351.5,254.477 355.977,250 361.5,250 C367.023,250 371.5,254.477 371.5,260 C371.5,265.523 367.023,270 361.5,270 z" fill="#2BA4FF"/>
      <path d="M382,270 C376.477,270 372,265.523 372,260 C372,254.477 376.477,250 382,250 C387.523,250 392,254.477 392,260 C392,265.523 387.523,270 382,270 z" fill="#2BA4FF"/>
      <path d="M402,270 C396.477,270 392,265.523 392,260 C392,254.477 396.477,250 402,250 C407.523,250 412,254.477 412,260 C412,265.523 407.523,270 402,270 z" fill="#2BA4FF"/>
      <path d="M422,270 C416.477,270 412,265.523 412,260 C412,254.477 416.477,250 422,250 C427.523,250 432,254.477 432,260 C432,265.523 427.523,270 422,270 z" fill="#2BA4FF"/>
      <path d="M443,270 C437.477,270 433,265.523 433,260 C433,254.477 437.477,250 443,250 C448.523,250 453,254.477 453,260 C453,265.523 448.523,270 443,270 z" fill="#2BA4FF"/>
      <path d="M180,270 C174.477,270 170,265.523 170,260 C170,254.477 174.477,250 180,250 C185.523,250 190,254.477 190,260 C190,265.523 185.523,270 180,270 z" fill="#2BA4FF"/>
      <path d="M321,270 C315.477,270 311,265.523 311,260 C311,254.477 315.477,250 321,250 C326.523,250 331,254.477 331,260 C331,265.523 326.523,270 321,270 z" fill="#2BA4FF"/>
    </g>
    <text transform="matrix(1, 0, 0, 1, 709.928, 244.103)">
      <tspan x="-13.128" y="8" font-family="HelveticaNeue-MediumItalic" font-size="24" fill="#2BA4FF">Ya</tspan>
    </text>
  </g>
  <g id="yb" display="none">
    <g>
      <path d="M181,350 C175.477,350 171,345.523 171,340 C171,334.477 175.477,330 181,330 C186.523,330 191,334.477 191,340 C191,345.523 186.523,350 181,350 z" fill="#2BA4FF"/>
      <path d="M201,350 C195.477,350 191,345.523 191,340 C191,334.477 195.477,330 201,330 C206.523,330 211,334.477 211,340 C211,345.523 206.523,350 201,350 z" fill="#2BA4FF"/>
      <path d="M221,350 C215.477,350 211,345.523 211,340 C211,334.477 215.477,330 221,330 C226.523,330 231,334.477 231,340 C231,345.523 226.523,350 221,350 z" fill="#2BA4FF"/>
      <path d="M241,350 C235.477,350 231,345.523 231,340 C231,334.477 235.477,330 241,330 C246.523,330 251,334.477 251,340 C251,345.523 246.523,350 241,350 z" fill="#2BA4FF"/>
      <path d="M261,350 C255.477,350 251,345.523 251,340 C251,334.477 255.477,330 261,330 C266.523,330 271,334.477 271,340 C271,345.523 266.523,350 261,350 z" fill="#2BA4FF"/>
      <path d="M281,350 C275.477,350 271,345.523 271,340 C271,334.477 275.477,330 281,330 C286.523,330 291,334.477 291,340 C291,345.523 286.523,350 281,350 z" fill="#2BA4FF"/>
      <path d="M321,350 C315.477,350 311,345.523 311,340 C311,334.477 315.477,330 321,330 C326.523,330 331,334.477 331,340 C331,345.523 326.523,350 321,350 z" fill="#2BA4FF"/>
      <path d="M341,350 C335.477,350 331,345.523 331,340 C331,334.477 335.477,330 341,330 C346.523,330 351,334.477 351,340 C351,345.523 346.523,350 341,350 z" fill="#2BA4FF"/>
      <path d="M361,350 C355.477,350 351,345.523 351,340 C351,334.477 355.477,330 361,330 C366.523,330 371,334.477 371,340 C371,345.523 366.523,350 361,350 z" fill="#2BA4FF"/>
      <path d="M381,350 C375.477,350 371,345.523 371,340 C371,334.477 375.477,330 381,330 C386.523,330 391,334.477 391,340 C391,345.523 386.523,350 381,350 z" fill="#2BA4FF"/>
      <path d="M401,350 C395.477,350 391,345.523 391,340 C391,334.477 395.477,330 401,330 C406.523,330 411,334.477 411,340 C411,345.523 406.523,350 401,350 z" fill="#2BA4FF"/>
      <path d="M421,350 C415.477,350 411,345.523 411,340 C411,334.477 415.477,330 421,330 C426.523,330 431,334.477 431,340 C431,345.523 426.523,350 421,350 z" fill="#2BA4FF"/>
      <path d="M161,350 C155.477,350 151,345.523 151,340 C151,334.477 155.477,330 161,330 C166.523,330 171,334.477 171,340 C171,345.523 166.523,350 161,350 z" fill="#2BA4FF"/>
      <path d="M441,350 C435.477,350 431,345.523 431,340 C431,334.477 435.477,330 441,330 C446.523,330 451,334.477 451,340 C451,345.523 446.523,350 441,350 z" fill="#2BA4FF"/>
      <path d="M459.672,350 C454.149,350 449.672,345.523 449.672,340 C449.672,334.477 454.149,330 459.672,330 C465.195,330 469.672,334.477 469.672,340 C469.672,345.523 465.195,350 459.672,350 z" fill="#2BA4FF"/>
      <path d="M479.672,350 C474.149,350 469.672,345.523 469.672,340 C469.672,334.477 474.149,330 479.672,330 C485.195,330 489.672,334.477 489.672,340 C489.672,345.523 485.195,350 479.672,350 z" fill="#2BA4FF"/>
      <path d="M499.672,350 C494.149,350 489.672,345.523 489.672,340 C489.672,334.477 494.149,330 499.672,330 C505.195,330 509.672,334.477 509.672,340 C509.672,345.523 505.195,350 499.672,350 z" fill="#2BA4FF"/>
      <path d="M301,350 C295.477,350 291,345.523 291,340 C291,334.477 295.477,330 301,330 C306.523,330 311,334.477 311,340 C311,345.523 306.523,350 301,350 z" fill="#2BA4FF"/>
      <path d="M519.672,350 C514.149,350 509.672,345.523 509.672,340 C509.672,334.477 514.149,330 519.672,330 C525.195,330 529.672,334.477 529.672,340 C529.672,345.523 525.195,350 519.672,350 z" fill="#2BA4FF"/>
      <path d="M539.672,350 C534.149,350 529.672,345.523 529.672,340 C529.672,334.477 534.149,330 539.672,330 C545.195,330 549.672,334.477 549.672,340 C549.672,345.523 545.195,350 539.672,350 z" fill="#2BA4FF"/>
      <path d="M559.672,350 C554.149,350 549.672,345.523 549.672,340 C549.672,334.477 554.149,330 559.672,330 C565.195,330 569.672,334.477 569.672,340 C569.672,345.523 565.195,350 559.672,350 z" fill="#2BA4FF"/>
      <path d="M579.672,350 C574.149,350 569.672,345.523 569.672,340 C569.672,334.477 574.149,330 579.672,330 C585.195,330 589.672,334.477 589.672,340 C589.672,345.523 585.195,350 579.672,350 z" fill="#2BA4FF"/>
    </g>
    <path d="M660.5,350 C654.977,350 650.5,345.523 650.5,340 C650.5,334.477 654.977,330 660.5,330 C666.023,330 670.5,334.477 670.5,340 C670.5,345.523 666.023,350 660.5,350 z" fill="#2BA4FF"/>
    <path d="M680,350 C674.477,350 670,345.523 670,340 C670,334.477 674.477,330 680,330 C685.523,330 690,334.477 690,340 C690,345.523 685.523,350 680,350 z" fill="#2BA4FF"/>
    <path d="M700,350 C694.477,350 690,345.523 690,340 C690,334.477 694.477,330 700,330 C705.523,330 710,334.477 710,340 C710,345.523 705.523,350 700,350 z" fill="#2BA4FF"/>
    <path d="M720,350 C714.477,350 710,345.523 710,340 C710,334.477 714.477,330 720,330 C725.523,330 730,334.477 730,340 C730,345.523 725.523,350 720,350 z" fill="#2BA4FF"/>
    <path d="M60.5,340.5 L740.5,340.5" fill-opacity="0" stroke="#2BA4FF" stroke-width="3"/>
    <text transform="matrix(1, 0, 0, 1, 711.892, 319)">
      <tspan x="-14.892" y="8" font-family="HelveticaNeue-MediumItalic" font-size="24" fill="#2BA4FF">Yb</tspan>
    </text>
  </g>
</svg>
