<?xml version="1.0" encoding="UTF-8"?>
<!DOCTYPE svg PUBLIC "-//W3C//DTD SVG 1.1//EN" "http://www.w3.org/Graphics/SVG/1.1/DTD/svg11.dtd">
<svg version="1.1" xmlns="http://www.w3.org/2000/svg" xmlns:xlink="http://www.w3.org/1999/xlink" x="0" y="0" width="1000" height="500" viewBox="0, 0, 1000, 500">
  <g id="Layer1">
    <path d="M601.623,320.5 L540.5,480.5" fill-opacity="0" stroke="#FF8080" stroke-width="5"/>
    <path d="M120.5,120.5 L820.5,120.5" fill-opacity="0" stroke="#2BA4FF" stroke-width="5"/>
    <path d="M120.5,220.5 L820.5,220.5" fill-opacity="0" stroke="#2BA4FF" stroke-width="5"/>
    <path d="M120.5,320.5 L820.5,320.5" fill-opacity="0" stroke="#2BA4FF" stroke-width="5"/>
    <path d="M220.5,20.5 L320.5,220.5" fill-opacity="0" stroke="#FF8080" stroke-width="5"/>
    <path d="M320.5,220.5 L220.5,480.5" fill-opacity="0" stroke="#FF8080" stroke-width="5"/>
    <g>
      <path d="M600.5,330.5 C594.977,330.5 590.5,326.023 590.5,320.5 C590.5,314.977 594.977,310.5 600.5,310.5 C606.023,310.5 610.5,314.977 610.5,320.5 C610.5,326.023 606.023,330.5 600.5,330.5 z" fill="#FFE5E5"/>
      <path d="M600.5,330.5 C594.977,330.5 590.5,326.023 590.5,320.5 C590.5,314.977 594.977,310.5 600.5,310.5 C606.023,310.5 610.5,314.977 610.5,320.5 C610.5,326.023 606.023,330.5 600.5,330.5 z" fill-opacity="0" stroke="#FF8080" stroke-width="5"/>
    </g>
    <g>
      <path d="M320.5,230.5 C314.977,230.5 310.5,226.023 310.5,220.5 C310.5,214.977 314.977,210.5 320.5,210.5 C326.023,210.5 330.5,214.977 330.5,220.5 C330.5,226.023 326.023,230.5 320.5,230.5 z" fill="#FFE5E5"/>
      <path d="M320.5,230.5 C314.977,230.5 310.5,226.023 310.5,220.5 C310.5,214.977 314.977,210.5 320.5,210.5 C326.023,210.5 330.5,214.977 330.5,220.5 C330.5,226.023 326.023,230.5 320.5,230.5 z" fill-opacity="0" stroke="#FF8080" stroke-width="5"/>
    </g>
    <text transform="matrix(1, 0, 0, 1, 883.134, 131.27)">
      <tspan x="-29.808" y="6.27" font-family="HelveticaNeue-MediumItalic" font-size="36" fill="#2BA4FF">y+1</tspan>
    </text>
    <text transform="matrix(1, 0, 0, 1, 878.65, 232.5)">
      <tspan x="-9" y="7.5" font-family="HelveticaNeue-MediumItalic" font-size="36" fill="#2BA4FF">y</tspan>
    </text>
    <text transform="matrix(1, 0, 0, 1, 884.4, 332.5)">
      <tspan x="-26.01" y="7.5" font-family="HelveticaNeue-MediumItalic" font-size="36" fill="#2BA4FF">y-1</tspan>
    </text>
    <path d="M540.5,20.5 L640.5,220.5" fill-opacity="0" stroke="#FF8080" stroke-width="5"/>
    <g>
      <path d="M640.5,230.5 C634.977,230.5 630.5,226.023 630.5,220.5 C630.5,214.977 634.977,210.5 640.5,210.5 C646.023,210.5 650.5,214.977 650.5,220.5 C650.5,226.023 646.023,230.5 640.5,230.5 z" fill="#FFE5E5"/>
      <path d="M640.5,230.5 C634.977,230.5 630.5,226.023 630.5,220.5 C630.5,214.977 634.977,210.5 640.5,210.5 C646.023,210.5 650.5,214.977 650.5,220.5 C650.5,226.023 646.023,230.5 640.5,230.5 z" fill-opacity="0" stroke="#FF8080" stroke-width="5"/>
    </g>
  </g>
</svg>
